<svg width="60" height="49" viewBox="0 0 60 49" fill="none" xmlns="http://www.w3.org/2000/svg">
<path d="M26.7745 11.418C24.7574 11.877 22.9686 12.5464 21.4082 13.4262C20.7231 13.8087 20.0571 14.2486 19.4101 14.7459C18.8011 15.2049 18.2493 15.7596 17.7545 16.4098C17.2598 17.0219 16.8601 17.7295 16.5557 18.5328C16.2512 19.2978 16.099 20.1393 16.099 21.0574H28.0875V49H0V29.6639C0 23.8497 0.608944 19.0492 1.82683 15.2623C3.04472 11.4372 4.79543 8.39617 7.07897 6.13934C9.40057 3.88251 12.2169 2.29508 15.5281 1.37705C18.8392 0.459016 22.588 0 26.7745 0V11.418ZM58.5728 11.418C56.5557 11.877 54.7669 12.5464 53.2065 13.4262C52.5214 13.8087 51.8554 14.2486 51.2084 14.7459C50.5994 15.2049 50.0476 15.7596 49.5528 16.4098C49.058 17.0219 48.6584 17.7295 48.3539 18.5328C48.0495 19.2978 47.8972 20.1393 47.8972 21.0574H60V49H31.7983V29.6639C31.7983 23.8497 32.4072 19.0492 33.6251 15.2623C34.843 11.4372 36.6128 8.39617 38.9343 6.13934C41.2559 3.88251 44.0533 2.29508 47.3264 1.37705C50.6375 0.459016 54.3863 0 58.5728 0V11.418Z" fill="white"/>
</svg>
