<svg id="svgSprite" xmlns="http://www.w3.org/2000/svg" xmlns:xlink="http://www.w3.org/1999/xlink"><defs><symbol viewBox="0 0 16 17" id="calendar">
  <title>Group</title>
  <g id="calendar_Symbols" stroke="none" stroke-width="1" fill="none" fill-rule="evenodd">
    <g id="calendar_Group" transform="translate(-4.000000, -3.000000)">
      <g transform="translate(4.000000, 3.000000)">
        <rect id="calendar_Rectangle" stroke="currentColor" x="0.5" y="1.5" width="15" height="15" rx="2" />
        <line x1="0.5" y1="5.5" x2="15.5" y2="5.5" id="calendar_Line-10" stroke="currentColor" stroke-linecap="square" />
        <line x1="12.5" y1="2.5" x2="12.5" y2="0.5" id="calendar_Line-Copy" stroke="currentColor" stroke-linecap="round" />
        <line x1="3.5" y1="2.5" x2="3.5" y2="0.5" id="calendar_Line" stroke="currentColor" stroke-linecap="round" />
      </g>
    </g>
  </g>
</symbol><symbol viewBox="0 0 24 24" fill="none" id="carousel-arrow-left">
<path fill-rule="evenodd" clip-rule="evenodd" d="M21 12C21 11.4477 20.5523 11 20 11H4C3.44772 11 3 11.4477 3 12C3 12.5523 3.44772 13 4 13H20C20.5523 13 21 12.5523 21 12Z" fill="white" />
<path fill-rule="evenodd" clip-rule="evenodd" d="M11.7071 4.29289C11.3166 3.90237 10.6834 3.90237 10.2929 4.29289L3.29289 11.2929C2.90237 11.6834 2.90237 12.3166 3.29289 12.7071L10.2929 19.7071C10.6834 20.0976 11.3166 20.0976 11.7071 19.7071C12.0976 19.3166 12.0976 18.6834 11.7071 18.2929L5.41421 12L11.7071 5.70711C12.0976 5.31658 12.0976 4.68342 11.7071 4.29289Z" fill="white" />
</symbol><symbol viewBox="0 0 24 24" fill="none" id="carousel-arrow-right">
<path fill-rule="evenodd" clip-rule="evenodd" d="M3 12C3 11.4477 3.44772 11 4 11H20C20.5523 11 21 11.4477 21 12C21 12.5523 20.5523 13 20 13H4C3.44772 13 3 12.5523 3 12Z" fill="white" />
<path fill-rule="evenodd" clip-rule="evenodd" d="M12.2929 4.29289C12.6834 3.90237 13.3166 3.90237 13.7071 4.29289L20.7071 11.2929C21.0976 11.6834 21.0976 12.3166 20.7071 12.7071L13.7071 19.7071C13.3166 20.0976 12.6834 20.0976 12.2929 19.7071C11.9024 19.3166 11.9024 18.6834 12.2929 18.2929L18.5858 12L12.2929 5.70711C11.9024 5.31658 11.9024 4.68342 12.2929 4.29289Z" fill="white" />
</symbol><symbol viewBox="0 0 24 27" fill="none" id="carousel-play">
  <path d="M20.412 13.4955L3 3.39445V23.5965L20.412 13.4955ZM22.788 11.4075C23.1558 11.618 23.4615 11.922 23.674 12.2887C23.8866 12.6553 23.9986 13.0716 23.9986 13.4955C23.9986 13.9193 23.8866 14.3356 23.674 14.7022C23.4615 15.0689 23.1558 15.3729 22.788 15.5835L3.699 26.6595C2.139 27.5655 0 26.5305 0 24.5715V2.41945C0 0.460454 2.139 -0.574547 3.699 0.331453L22.788 11.4075Z" fill="white" />
</symbol><symbol viewBox="0 0 16 16" fill="none" id="carousel-stop">
  
  <rect width="16" height="16" rx="1" stroke="white" stroke-width="4" mask="url(#carousel-stop_path-1-inside-1)" />
</symbol><mask id="carousel-stop_path-1-inside-1" fill="white">
    <rect width="16" height="16" rx="1" />
  </mask><symbol viewBox="0 0 8 12" id="chevron">
    <path fill="currentColor" fill-rule="evenodd" d="M.424 1.063l.639-.639c.234-.234.614-.234.848 0l5.152 5.152c.234.234.234.614 0 .848L1.91 11.576c-.234.234-.614.234-.848 0l-.639-.639c-.234-.234-.234-.614 0-.848L4.512 6 .424 1.911c-.234-.234-.234-.614 0-.848z" />
</symbol></defs></svg>