<svg id="svgSprite" xmlns="http://www.w3.org/2000/svg" xmlns:xlink="http://www.w3.org/1999/xlink"><defs><symbol viewBox="0 0 16 17" id="calendar">
  <title>Group</title>
  <g id="calendar_Symbols" stroke="none" stroke-width="1" fill="none" fill-rule="evenodd">
    <g id="calendar_Group" transform="translate(-4.000000, -3.000000)">
      <g transform="translate(4.000000, 3.000000)">
        <rect id="calendar_Rectangle" stroke="currentColor" x="0.5" y="1.5" width="15" height="15" rx="2" />
        <line x1="0.5" y1="5.5" x2="15.5" y2="5.5" id="calendar_Line-10" stroke="currentColor" stroke-linecap="square" />
        <line x1="12.5" y1="2.5" x2="12.5" y2="0.5" id="calendar_Line-Copy" stroke="currentColor" stroke-linecap="round" />
        <line x1="3.5" y1="2.5" x2="3.5" y2="0.5" id="calendar_Line" stroke="currentColor" stroke-linecap="round" />
      </g>
    </g>
  </g>
</symbol><symbol viewBox="0 0 24 24" fill="none" id="carousel-arrow-left">
<path fill-rule="evenodd" clip-rule="evenodd" d="M21 12C21 11.4477 20.5523 11 20 11H4C3.44772 11 3 11.4477 3 12C3 12.5523 3.44772 13 4 13H20C20.5523 13 21 12.5523 21 12Z" fill="white" />
<path fill-rule="evenodd" clip-rule="evenodd" d="M11.7071 4.29289C11.3166 3.90237 10.6834 3.90237 10.2929 4.29289L3.29289 11.2929C2.90237 11.6834 2.90237 12.3166 3.29289 12.7071L10.2929 19.7071C10.6834 20.0976 11.3166 20.0976 11.7071 19.7071C12.0976 19.3166 12.0976 18.6834 11.7071 18.2929L5.41421 12L11.7071 5.70711C12.0976 5.31658 12.0976 4.68342 11.7071 4.29289Z" fill="white" />
</symbol><symbol viewBox="0 0 24 24" fill="none" id="carousel-arrow-right">
<path fill-rule="evenodd" clip-rule="evenodd" d="M3 12C3 11.4477 3.44772 11 4 11H20C20.5523 11 21 11.4477 21 12C21 12.5523 20.5523 13 20 13H4C3.44772 13 3 12.5523 3 12Z" fill="white" />
<path fill-rule="evenodd" clip-rule="evenodd" d="M12.2929 4.29289C12.6834 3.90237 13.3166 3.90237 13.7071 4.29289L20.7071 11.2929C21.0976 11.6834 21.0976 12.3166 20.7071 12.7071L13.7071 19.7071C13.3166 20.0976 12.6834 20.0976 12.2929 19.7071C11.9024 19.3166 11.9024 18.6834 12.2929 18.2929L18.5858 12L12.2929 5.70711C11.9024 5.31658 11.9024 4.68342 12.2929 4.29289Z" fill="white" />
</symbol><symbol viewBox="0 0 24 27" fill="none" id="carousel-play">
  <path d="M20.412 13.4955L3 3.39445V23.5965L20.412 13.4955ZM22.788 11.4075C23.1558 11.618 23.4615 11.922 23.674 12.2887C23.8866 12.6553 23.9986 13.0716 23.9986 13.4955C23.9986 13.9193 23.8866 14.3356 23.674 14.7022C23.4615 15.0689 23.1558 15.3729 22.788 15.5835L3.699 26.6595C2.139 27.5655 0 26.5305 0 24.5715V2.41945C0 0.460454 2.139 -0.574547 3.699 0.331453L22.788 11.4075Z" fill="white" />
</symbol><symbol viewBox="0 0 16 16" fill="none" id="carousel-stop">
  
  <rect width="16" height="16" rx="1" stroke="white" stroke-width="4" mask="url(#carousel-stop_path-1-inside-1)" />
</symbol><mask id="carousel-stop_path-1-inside-1" fill="white">
    <rect width="16" height="16" rx="1" />
  </mask><symbol viewBox="0 0 8 12" id="chevron">
    <path fill="currentColor" fill-rule="evenodd" d="M.424 1.063l.639-.639c.234-.234.614-.234.848 0l5.152 5.152c.234.234.234.614 0 .848L1.91 11.576c-.234.234-.614.234-.848 0l-.639-.639c-.234-.234-.234-.614 0-.848L4.512 6 .424 1.911c-.234-.234-.234-.614 0-.848z" />
</symbol><symbol viewBox="0 0 60 49" fill="none" id="quote">
<path d="M26.7745 11.418C24.7574 11.877 22.9686 12.5464 21.4082 13.4262C20.7231 13.8087 20.0571 14.2486 19.4101 14.7459C18.8011 15.2049 18.2493 15.7596 17.7545 16.4098C17.2598 17.0219 16.8601 17.7295 16.5557 18.5328C16.2512 19.2978 16.099 20.1393 16.099 21.0574H28.0875V49H0V29.6639C0 23.8497 0.608944 19.0492 1.82683 15.2623C3.04472 11.4372 4.79543 8.39617 7.07897 6.13934C9.40057 3.88251 12.2169 2.29508 15.5281 1.37705C18.8392 0.459016 22.588 0 26.7745 0V11.418ZM58.5728 11.418C56.5557 11.877 54.7669 12.5464 53.2065 13.4262C52.5214 13.8087 51.8554 14.2486 51.2084 14.7459C50.5994 15.2049 50.0476 15.7596 49.5528 16.4098C49.058 17.0219 48.6584 17.7295 48.3539 18.5328C48.0495 19.2978 47.8972 20.1393 47.8972 21.0574H60V49H31.7983V29.6639C31.7983 23.8497 32.4072 19.0492 33.6251 15.2623C34.843 11.4372 36.6128 8.39617 38.9343 6.13934C41.2559 3.88251 44.0533 2.29508 47.3264 1.37705C50.6375 0.459016 54.3863 0 58.5728 0V11.418Z" fill="white" />
</symbol><symbol viewBox="0 0 60 49" fill="none" id="quote-close">
<path d="M33.2255 11.418C35.2426 11.877 37.0314 12.5464 38.5918 13.4262C39.2769 13.8087 39.9429 14.2486 40.5899 14.7459C41.1989 15.2049 41.7507 15.7596 42.2455 16.4098C42.7402 17.0219 43.1399 17.7295 43.4443 18.5328C43.7488 19.2978 43.901 20.1393 43.901 21.0574H31.9125V49H60V29.6639C60 23.8497 59.3911 19.0492 58.1732 15.2623C56.9553 11.4372 55.2046 8.39617 52.921 6.13934C50.5994 3.88251 47.7831 2.29508 44.4719 1.37705C41.1608 0.459016 37.412 0 33.2255 0V11.418ZM1.42721 11.418C3.44434 11.877 5.23311 12.5464 6.79353 13.4262C7.47859 13.8087 8.14462 14.2486 8.79163 14.7459C9.40057 15.2049 9.95243 15.7596 10.4472 16.4098C10.942 17.0219 11.3416 17.7295 11.6461 18.5328C11.9505 19.2978 12.1028 20.1393 12.1028 21.0574H0V49H28.2017V29.6639C28.2017 23.8497 27.5928 19.0492 26.3749 15.2623C25.157 11.4372 23.3872 8.39617 21.0657 6.13934C18.7441 3.88251 15.9467 2.29508 12.6736 1.37705C9.36251 0.459016 5.6137 0 1.42721 0V11.418Z" fill="white" />
</symbol></defs></svg>