<?xml version="1.0" encoding="UTF-8" standalone="no"?>
<svg width="120px" height="19px" viewBox="0 0 120 19" version="1.1" xmlns="http://www.w3.org/2000/svg" xmlns:xlink="http://www.w3.org/1999/xlink">
    <!-- Generator: Sketch 46.2 (44496) - http://www.bohemiancoding.com/sketch -->
    <title>ZOOCHA-LOGO-WHITE</title>
    <desc>Created with Sketch.</desc>
    <defs></defs>
    <g id="Symbols" stroke="none" stroke-width="1" fill="none" fill-rule="evenodd">
        <g id="Main-Nav-(blue)" fill-rule="nonzero" fill="#000021">
            <g id="ZOOCHA-LOGO-WHITE" transform="translate(0.125000, 0.000000)">
                <polygon id="Shape" points="0.0242241319 15.6003409 10.0530147 3.93642143 0.339137846 3.93642143 0.339137846 0.423922307 15.2127548 0.423922307 15.2127548 3.47616292 5.18396422 15.1400824 15.2127548 15.1400824 15.2127548 18.6525815 0.0242241319 18.6525815"></polygon>
                <path d="M27.1310277,18.9553832 C25.726028,18.9553832 24.430037,18.7131419 23.2551666,18.2165472 C22.0802962,17.7199525 21.0507706,17.0537888 20.1908139,16.2059442 C19.3308572,15.3580996 18.6646936,14.3770223 18.180211,13.2384881 C17.7078404,12.0999539 17.4655991,10.8766352 17.4655991,9.58064415 L17.4655991,9.53219588 C17.4655991,8.22409276 17.7078404,7.01288617 18.192323,5.87435197 C18.6768057,4.73581778 19.3550814,3.74262837 20.215038,2.88267169 C21.0749947,2.02271501 22.1045203,1.34443932 23.2915028,0.847844615 C24.4784852,0.351249912 25.7744763,0.109008593 27.1794759,0.109008593 C28.5844756,0.109008593 29.8804666,0.351249912 31.055337,0.847844615 C32.2302074,1.34443932 33.259733,2.01060294 34.1196897,2.85844756 C34.9796464,3.70629217 35.64581,4.68736951 36.1302927,5.82590371 C36.6026632,6.96443791 36.8449045,8.18775657 36.8449045,9.48374762 L36.8449045,9.53219588 C36.8449045,10.840299 36.6026632,12.0515056 36.1181806,13.1900398 C35.633698,14.328574 34.9554223,15.3217634 34.0954656,16.1817201 C33.2355089,17.0416768 32.2059833,17.7199525 31.0190008,18.2165472 C29.8320184,18.7131419 28.5360273,18.9553832 27.1310277,18.9553832 Z M27.1794759,15.2612031 C27.9788723,15.2612031 28.7177083,15.1158583 29.395984,14.8130566 C30.0742597,14.522367 30.6556389,14.1105568 31.1280094,13.589738 C31.60038,13.0689191 31.975854,12.4633158 32.2423195,11.7850401 C32.5087849,11.0946524 32.6420177,10.3679284 32.6420177,9.58064415 L32.6420177,9.53219588 C32.6420177,8.7449116 32.5087849,8.01818764 32.2423195,7.31568782 C31.975854,6.62530006 31.5882679,6.0075847 31.0916732,5.49887793 C30.5950785,4.9780591 30.0136994,4.56624885 29.3354237,4.26344721 C28.657148,3.96064556 27.918312,3.8031887 27.1189156,3.8031887 C26.3074072,3.8031887 25.5564591,3.94853349 24.8902955,4.25133514 C24.2241319,4.54202472 23.6548648,4.95383496 23.1703821,5.4746538 C22.6980115,5.99547263 22.3225375,6.60107593 22.0560721,7.27935162 C21.7896066,7.96973938 21.6563739,8.69646334 21.6563739,9.48374762 L21.6563739,9.53219588 C21.6563739,10.3194802 21.7896066,11.0462041 22.0560721,11.7487039 C22.3225375,12.4390917 22.7101236,13.0568071 23.2067183,13.5655138 C23.703313,14.0863327 24.2846922,14.4981429 24.9508558,14.8009446 C25.6170194,15.1158583 26.3679675,15.2612031 27.1794759,15.2612031 Z" id="Shape"></path>
                <path d="M49.2597721,18.9553832 C47.8547725,18.9553832 46.5587814,18.7131419 45.383911,18.2165472 C44.2090406,17.7199525 43.179515,17.0537888 42.3195583,16.2059442 C41.4596017,15.3580996 40.793438,14.3770223 40.3089554,13.2384881 C39.8365848,12.0999539 39.5943435,10.8766352 39.5943435,9.58064415 L39.5943435,9.53219588 C39.5943435,8.22409276 39.8365848,7.01288617 40.3210675,5.87435197 C40.8055501,4.73581778 41.4838258,3.74262837 42.3437825,2.88267169 C43.2037392,2.02271501 44.2332648,1.34443932 45.4202472,0.847844615 C46.6072297,0.351249912 47.9032207,0.109008593 49.3082204,0.109008593 C50.71322,0.109008593 52.0092111,0.351249912 53.1840815,0.847844615 C54.3589519,1.34443932 55.3884775,2.01060294 56.2484342,2.85844756 C57.1083908,3.70629217 57.7745545,4.68736951 58.2590371,5.82590371 C58.7314077,6.96443791 58.973649,8.18775657 58.973649,9.48374762 L58.973649,9.53219588 C58.973649,10.840299 58.7314077,12.0515056 58.246925,13.1900398 C57.7624424,14.328574 57.0841667,15.3217634 56.22421,16.1817201 C55.3642533,17.0416768 54.3347277,17.7199525 53.1477453,18.2165472 C51.9607628,18.7131419 50.6647718,18.9553832 49.2597721,18.9553832 Z M49.3203325,15.2612031 C50.1197288,15.2612031 50.8585648,15.1158583 51.5368405,14.8130566 C52.2151162,14.522367 52.7964954,14.1105568 53.2688659,13.589738 C53.7412365,13.0689191 54.1167106,12.4633158 54.383176,11.7850401 C54.6496415,11.0946524 54.7828742,10.3679284 54.7828742,9.58064415 L54.7828742,9.53219588 C54.7828742,8.7449116 54.6496415,8.01818764 54.383176,7.31568782 C54.1167106,6.62530006 53.7291244,6.0075847 53.2325297,5.49887793 C52.735935,4.9780591 52.1545559,4.56624885 51.4762802,4.26344721 C50.7980045,3.96064556 50.0591685,3.8031887 49.2597721,3.8031887 C48.4482637,3.8031887 47.6973156,3.94853349 47.031152,4.25133514 C46.3649884,4.54202472 45.7957213,4.95383496 45.3112386,5.4746538 C44.8388681,5.99547263 44.463394,6.60107593 44.1969286,7.27935162 C43.9304631,7.96973938 43.7972304,8.69646334 43.7972304,9.48374762 L43.7972304,9.53219588 C43.7972304,10.3194802 43.9304631,11.0462041 44.1969286,11.7487039 C44.463394,12.4390917 44.8509801,13.0568071 45.3475748,13.5655138 C45.8441695,14.0863327 46.4255487,14.4981429 47.0917123,14.8009446 C47.7578759,15.1158583 48.496712,15.2612031 49.3203325,15.2612031 Z" id="Shape"></path>
                <path d="M71.0857149,18.9553832 C69.7533877,18.9553832 68.5058449,18.7131419 67.3673107,18.2286592 C66.2166644,17.7441766 65.2355871,17.078013 64.3998545,16.2422804 C63.564122,15.3944358 62.9100704,14.4012464 62.4498119,13.2627122 C61.9895534,12.124178 61.7473121,10.8887473 61.7473121,9.59275621 C61.7473121,8.23620483 61.9774413,7.02499824 62.4498119,5.88646404 C62.9221825,4.74792984 63.564122,3.75474044 64.3998545,2.89478376 C65.2355871,2.03482708 66.2287765,1.35655138 67.3915348,0.859956681 C68.5542931,0.363361978 69.8381721,0.121120659 71.2431718,0.121120659 C72.0910164,0.121120659 72.8661886,0.193793055 73.5686884,0.32702578 C74.2711883,0.460258505 74.9131278,0.65405156 75.4823949,0.896292879 C76.051662,1.1385342 76.5845929,1.42922378 77.0690755,1.78047369 C77.5535581,2.1317236 78.0017046,2.50719765 78.4256269,2.93111995 L75.869981,5.87435197 C75.1553691,5.23241248 74.4286451,4.72370571 73.6898091,4.36034373 C72.9509731,3.99698176 72.1273526,3.81530077 71.2068356,3.81530077 C70.4437754,3.81530077 69.7412756,3.96064556 69.087224,4.26344721 C68.4331725,4.55413679 67.8760175,4.96594703 67.4036469,5.48676586 C66.9312763,6.0075847 66.5679143,6.613188 66.3135609,7.29146369 C66.0470955,7.98185145 65.9259748,8.7085754 65.9259748,9.49585969 C65.9259748,10.3315922 66.0592076,11.0583162 66.3135609,11.760816 C66.5679143,12.4512038 66.9312763,13.0689191 67.3915348,13.5776259 C67.8517933,14.0984447 68.4089484,14.510255 69.0629999,14.8130566 C69.7170515,15.1158583 70.4316634,15.2733151 71.2068356,15.2733151 C72.2484733,15.2733151 73.1326541,15.0795221 73.847266,14.704048 C74.5618778,14.3164619 75.2886018,13.7956431 75.9911016,13.1415915 L78.5467475,15.7214616 C78.074377,16.2301683 77.5898943,16.6783148 77.0932996,17.078013 C76.5845929,17.4777111 76.0395499,17.816849 75.4339466,18.1075386 C74.8404554,18.3982281 74.1742917,18.6162453 73.4717919,18.7615901 C72.7692921,18.8827108 71.9698957,18.9553832 71.0857149,18.9553832 Z" id="Shape"></path>
                <polygon id="Shape" points="81.756445 0.423922307 85.7655388 0.423922307 85.7655388 7.63060153 93.1660111 7.63060153 93.1660111 0.423922307 97.1751049 0.423922307 97.1751049 18.6525815 93.1660111 18.6525815 93.1660111 11.3368937 85.7655388 11.3368937 85.7655388 18.6525815 81.756445 18.6525815"></polygon>
                <path d="M107.797387,0.290689582 L111.491567,0.290689582 L119.303849,18.6525815 L115.113075,18.6525815 L113.441609,14.5587032 L105.738336,14.5587032 L104.078983,18.6525815 L99.9851042,18.6525815 L107.797387,0.290689582 Z M112.024498,11.02198 L109.602085,5.11129182 L107.179671,11.02198 L112.024498,11.02198 Z" id="Shape"></path>
            </g>
        </g>
    </g>
</svg>