<svg width="72" height="78" viewBox="0 0 72 78" fill="none" xmlns="http://www.w3.org/2000/svg">
<path d="M61.4625 0V9.63285H56.6344V0H46.0969V9.63285H41.2687V0H30.7313V9.63285H25.9031V0H15.3656V9.63285H10.5375V0H0V9.63285V13.0083V34.3557H2.16764V78H69.8324V34.3557H72V0H61.4625Z" fill="white"/>
<path d="M12.8011 32.3362V29.8481H15.7247C15.8988 29.8319 16.0744 29.8521 16.2402 29.9073C16.406 29.9625 16.5583 30.0516 16.6873 30.1688C16.8163 30.2859 16.9192 30.4286 16.9894 30.5877C17.0595 30.7467 17.0954 30.9185 17.0946 31.0922C17.0946 31.851 16.5851 32.3362 15.7247 32.3362H12.8011ZM12.8011 25.6019H15.6412C15.9524 25.6019 16.2509 25.7247 16.471 25.9432C16.6911 26.1617 16.8148 26.4581 16.8148 26.7671C16.8148 27.0762 16.6911 27.3725 16.471 27.5911C16.2509 27.8096 15.9524 27.9324 15.6412 27.9324H12.8011V25.6019ZM19.4043 31.4073C19.4262 30.8051 19.2334 30.2145 18.8598 29.7397C18.4862 29.2648 17.9557 28.9361 17.3619 28.8115C17.9075 28.6879 18.3915 28.3765 18.7279 27.9324C19.0643 27.4884 19.2314 26.9404 19.1996 26.3856C19.1996 24.9757 18.1596 23.6944 16.134 23.6944H10.5332V34.2603H16.3094C18.335 34.2603 19.4043 32.9914 19.4043 31.4073Z" fill="#AD3238"/>
<path d="M23.3005 25.6185H25.677C25.885 25.5914 26.0965 25.6087 26.2973 25.6693C26.498 25.7298 26.6834 25.8322 26.8412 25.9696C26.9989 26.1069 27.1252 26.2762 27.2118 26.4659C27.2984 26.6557 27.3431 26.8616 27.3431 27.0699C27.3431 27.2782 27.2984 27.4841 27.2118 27.6739C27.1252 27.8636 26.9989 28.0328 26.8412 28.1702C26.6834 28.3076 26.498 28.41 26.2973 28.4705C26.0965 28.5311 25.885 28.5483 25.677 28.5212H23.3005V25.6185ZM23.3005 30.4661H24.9712L27.0595 34.252H29.6573L27.2641 30.2297C27.9621 30.0616 28.5781 29.6549 29.0043 29.0809C29.4304 28.5069 29.6394 27.8023 29.5946 27.0906C29.5946 25.1292 28.2373 23.6862 26.0195 23.6862H21.041V34.252H23.3005V30.4661Z" fill="#AD3238"/>
<path d="M48.0506 34.4427C48.9755 34.4746 49.8907 34.2478 50.692 33.788C51.4933 33.3283 52.1482 32.6542 52.5822 31.8427L50.6359 30.9097C50.3894 31.3773 50.0175 31.7681 49.5612 32.0389C49.1049 32.3096 48.5821 32.4499 48.0506 32.444C46.2004 32.444 44.7971 30.9719 44.7971 28.9773C44.7971 26.9827 46.2004 25.5065 48.0506 25.5065C48.5816 25.5057 49.1029 25.6484 49.5583 25.9195C50.0138 26.1905 50.3863 26.5796 50.6359 27.0449L52.5822 26.0954C52.1486 25.2847 51.4933 24.6121 50.6915 24.155C49.8898 23.698 48.9744 23.475 48.0506 23.5119C44.9432 23.5119 42.4707 25.7304 42.4707 28.9773C42.4707 32.2242 44.9432 34.4427 48.0506 34.4427Z" fill="#AD3238"/>
<path d="M61.4659 25.6185V23.6861H53.9355V34.252H61.4659V32.303H56.1993V29.8481H59.9874V27.9158H56.1993V25.6185H61.4659Z" fill="#AD3238"/>
<path d="M35.9728 34.4427C36.8188 34.4624 37.6592 34.3012 38.4369 33.97V34.2313H40.7006V30.2587C40.7006 30.1799 40.7006 30.1011 40.7006 30.0223V23.6861V23.6654H38.4369V23.6861H38.4119V29.9518C38.4119 31.4239 37.5975 32.4399 35.9728 32.4399C34.3481 32.4399 33.5002 31.4281 33.5002 29.9518V23.6861H31.2031V30.0389C31.2031 32.6348 32.715 34.4427 35.9728 34.4427Z" fill="#AD3238"/>
<path d="M15.4201 46.29C16.2515 46.3185 17.0741 46.1143 17.7942 45.7007C18.5143 45.2872 19.1027 44.6809 19.4923 43.9512L17.7423 43.1219C17.5212 43.5423 17.1872 43.8938 16.7774 44.1375C16.3675 44.3812 15.8978 44.5076 15.4201 44.5027C13.7495 44.5027 12.4965 43.1758 12.4965 41.3802C12.4965 39.5847 13.7495 38.2619 15.4201 38.2619C15.897 38.2607 16.3653 38.3886 16.7745 38.6319C17.1836 38.8752 17.5182 39.2247 17.7423 39.6427L19.4923 38.7885C19.1027 38.0599 18.5138 37.4554 17.7933 37.0446C17.0729 36.6338 16.2502 36.4333 15.4201 36.4663C12.6218 36.4663 10.4082 38.4609 10.4082 41.3802C10.4082 44.2995 12.6343 46.2983 15.4201 46.2983" fill="#AD3238"/>
<path d="M24.6467 38.3697L26.2255 42.7279H23.0513L24.6467 38.3697ZM22.5083 44.4654H26.7851L27.3866 46.1034H29.6127L25.9248 36.5991H23.3687L19.6641 46.1241H21.9027L22.5083 44.4654Z" fill="#AD3238"/>
<path d="M43.1693 38.3945H45.9551V36.6156H38.3203V38.3945H41.1186V46.1199H43.1693V38.3945Z" fill="#AD3238"/>
<path d="M49.3663 36.6156H47.3281V46.1199H53.4134V44.3368H49.3663V36.6156Z" fill="#AD3238"/>
<path d="M54.6914 46.1199H61.4658V44.3658H56.7296V42.1556H60.1335V40.4182H56.7296V38.3531H61.4658V36.6156H54.6914V46.1199Z" fill="#AD3238"/>
<path d="M33.6597 42.2386C34.7665 42.4957 35.5976 42.7362 35.5976 43.4494C35.5976 43.9927 35.0547 44.5193 33.927 44.5193C33.7763 44.5195 33.6257 44.5112 33.4759 44.4944C33.3454 44.4804 33.2158 44.4597 33.0875 44.4322H33.0415C32.9214 44.4059 32.8028 44.3727 32.6865 44.3327C32.0433 44.1088 31.9055 43.7522 31.8846 43.5034H30.0845C30.0784 43.7504 30.1051 43.9972 30.1639 44.2373C30.2509 44.5663 30.4075 44.873 30.6233 45.1372C31.0617 45.647 31.6607 45.9948 32.3232 46.1241H32.3816L32.6448 46.178C32.8077 46.2029 32.9747 46.2278 33.1501 46.2443H33.217H33.4968C33.6096 46.2443 33.7181 46.2443 33.8351 46.2443C36.4162 46.2443 37.665 44.934 37.665 43.1965C37.665 41.0858 35.6561 40.6172 34.0773 40.2606C32.9705 40.0035 32.1686 39.8045 32.1686 39.1617C32.1686 38.5936 32.6573 38.1955 33.5761 38.1955C33.7578 38.1959 33.9392 38.2083 34.1191 38.2329L34.3613 38.2743C34.4459 38.287 34.5296 38.305 34.6119 38.3282L34.708 38.3531L34.8876 38.4112C35.489 38.6351 35.6227 38.9834 35.6435 39.2405H37.4436C37.471 38.6489 37.2793 38.0677 36.9049 37.6067C36.4757 37.0989 35.8875 36.7485 35.2342 36.6115C34.9286 36.5359 34.617 36.4859 34.3029 36.4622H34.1985H34.0272H33.7056C31.4544 36.4622 30.0762 37.7436 30.0762 39.3235C30.0762 41.4466 32.0851 41.8737 33.6471 42.2262" fill="#AD3238"/>
<path d="M48.7788 48.5002H47.317V52.5515C47.317 53.5011 46.7908 54.1563 45.7425 54.1563C45.5259 54.1765 45.3075 54.1487 45.103 54.075C44.8986 54.0012 44.7131 53.8833 44.5601 53.7298C44.4071 53.5763 44.2903 53.391 44.2181 53.1872C44.146 52.9835 44.1203 52.7663 44.1428 52.5515V48.5002H42.6602V52.6013C42.6602 54.26 43.6417 55.446 45.7425 55.446C46.2873 55.4593 46.8286 55.3561 47.3296 55.1432V55.3133H48.7788V52.8252C48.7788 52.7423 48.7788 52.6593 48.7788 52.5723V48.4836V48.5002Z" fill="#AD3238"/>
<path d="M57.7537 55.3257V48.5043H56.1332L54.0241 51.0048L52.0653 48.5043H50.3027V55.3257H51.7645V50.416L54.0199 53.1404L56.2794 50.416V55.3257H57.7537Z" fill="#AD3238"/>
<path d="M20.1349 55.3298H21.6092V48.5084H19.9887L17.8795 51.0089L15.9207 48.5084H14.1582V55.3298H15.6242V50.4201L17.8754 53.1445L20.1349 50.4201V55.3298Z" fill="#AD3238"/>
<path d="M41.5569 49.7566V48.5084H36.6953V55.3298H41.5569V54.0733H38.1571V52.4893H40.6046V51.2411H38.1571V49.7566H41.5569Z" fill="#AD3238"/>
<path d="M29.098 55.3216V52.8335C29.098 52.7506 29.098 52.6676 29.098 52.5847V48.4919H27.6362V52.5433C27.6362 53.4929 27.11 54.148 26.0616 54.148C25.845 54.1682 25.6267 54.1404 25.4222 54.0667C25.2177 53.9929 25.0323 53.875 24.8793 53.7215C24.7263 53.568 24.6095 53.3827 24.5373 53.1789C24.4651 52.9752 24.4394 52.7581 24.462 52.5433V48.4919H22.9668V52.593C22.9668 54.2724 23.9483 55.4377 26.0491 55.4377C26.5939 55.451 27.1352 55.3478 27.6362 55.135V55.305L29.098 55.3216Z" fill="#AD3238"/>
<path d="M32.4891 55.4252H32.6938H32.9318C34.7862 55.4252 35.6842 54.4839 35.6842 53.2357C35.6842 51.7222 34.2433 51.3821 33.1073 51.1292C32.3137 50.9426 31.7373 50.8016 31.7373 50.3413C31.7373 49.881 32.0882 49.6446 32.7481 49.6446C32.878 49.6461 33.0078 49.6558 33.1365 49.6737L33.3119 49.7027C33.3724 49.7119 33.4324 49.7243 33.4915 49.74L33.5625 49.7608L33.6878 49.7981C34.1054 49.9639 34.2182 50.2127 34.2308 50.3828H35.5255C35.5355 50.0967 35.4768 49.8125 35.3542 49.5534C35.296 49.4317 35.2231 49.3176 35.1371 49.2134C34.8324 48.8494 34.4131 48.5981 33.9467 48.5002C33.7278 48.4441 33.5041 48.408 33.2785 48.3923H33.2075H33.0822H32.8525C31.232 48.3923 30.2463 49.3129 30.2463 50.4657C30.2463 51.9917 31.6872 52.2986 32.8107 52.5391C33.6043 52.7257 34.2015 52.8998 34.2015 53.4099C34.2015 53.7997 33.8089 54.177 33.007 54.177C32.8942 54.177 32.7898 54.177 32.6854 54.177L32.4014 54.1314H32.3722C32.2859 54.1115 32.2008 54.0866 32.1174 54.0568C31.6538 53.8951 31.5536 53.6421 31.541 53.4638H30.2463C30.2439 53.6411 30.2635 53.8179 30.3048 53.9904C30.3684 54.2264 30.4808 54.4467 30.6347 54.6373C30.9468 55.0056 31.3751 55.2584 31.8501 55.3547H31.8919L32.0798 55.392C32.2 55.4138 32.3213 55.429 32.4432 55.4376H32.4891" fill="#AD3238"/>
<path d="M20.253 62.1636L21.3974 59.037L22.5293 62.1636H20.253ZM20.4786 57.7805L17.8223 64.5977H19.4302L19.8479 63.4242H22.9177L23.3353 64.5977H24.9726L22.3246 57.7805H20.4786Z" fill="#AD3238"/>
<path d="M28.4262 60.9072H26.8934V59.0245H28.4262C28.5582 59.0122 28.6913 59.0274 28.8171 59.0691C28.9428 59.1108 29.0584 59.1781 29.1564 59.2667C29.2544 59.3553 29.3327 59.4633 29.3863 59.5837C29.4399 59.7041 29.4676 59.8342 29.4676 59.9659C29.4676 60.0975 29.4399 60.2276 29.3863 60.348C29.3327 60.4684 29.2544 60.5763 29.1564 60.665C29.0584 60.7536 28.9428 60.8209 28.8171 60.8626C28.6913 60.9043 28.5582 60.9195 28.4262 60.9072ZM30.9531 59.9783C30.9531 58.7094 30.076 57.7805 28.6434 57.7805H25.4316V64.5977H26.8934V62.1553H27.9668L29.3159 64.5977H30.9865L29.4453 62.0019C29.8954 61.8937 30.2928 61.6316 30.5677 61.2615C30.8427 60.8915 30.9776 60.4372 30.9489 59.9783" fill="#AD3238"/>
<path d="M35.3046 58.9541C35.6477 58.9522 35.9847 59.0435 36.2792 59.2182C36.5737 59.3929 36.8144 59.6443 36.9753 59.9451L38.2282 59.3356C37.9474 58.814 37.5241 58.3817 37.007 58.0883C36.4898 57.7949 35.8998 57.6523 35.3046 57.6769C34.824 57.6537 34.3435 57.7277 33.8925 57.8944C33.4415 58.0611 33.0292 58.317 32.6808 58.6466C32.3323 58.9761 32.0549 59.3725 31.8654 59.8117C31.6759 60.2509 31.5781 60.7238 31.5781 61.2016C31.5781 61.6794 31.6759 62.1523 31.8654 62.5915C32.0549 63.0307 32.3323 63.4271 32.6808 63.7566C33.0292 64.0862 33.4415 64.3421 33.8925 64.5088C34.3435 64.6755 34.824 64.7495 35.3046 64.7263C35.8993 64.7485 36.4884 64.6048 37.0051 64.3117C37.5218 64.0185 37.9455 63.5876 38.2282 63.0676L36.9753 62.4622C36.8163 62.7646 36.576 63.0172 36.2811 63.1922C35.9861 63.3671 35.6482 63.4575 35.3046 63.4533C34.7302 63.4186 34.1908 63.1675 33.7964 62.7514C33.402 62.3353 33.1824 61.7854 33.1824 61.214C33.1824 60.6427 33.402 60.0928 33.7964 59.6767C34.1908 59.2606 34.7302 59.0095 35.3046 58.9748" fill="#AD3238"/>
<path d="M43.7832 60.4552H40.5422V57.7805H39.0762V64.5977H40.5422V61.7365H43.7832V64.5977H45.2575V57.7805H43.7832V60.4552Z" fill="#AD3238"/>
<path d="M48.2821 57.7805H46.8203V64.6019H48.2821V57.7805Z" fill="#AD3238"/>
<path d="M52.5087 63.022L50.6042 57.7764H48.9336L51.5899 64.5977H53.4234L56.0714 57.7764H54.4007L52.5087 63.022Z" fill="#AD3238"/>
<path d="M56.6895 64.606H61.551V63.3496H58.1513V61.7614H60.5946V60.5132H58.1513V59.0328H61.551V57.7847H56.6895V64.606Z" fill="#AD3238"/>
<path d="M13.2782 63.7062C12.6267 63.7062 12.0253 63.4076 12.0253 62.6944C12.0425 62.456 12.1231 62.2264 12.2588 62.029C12.3945 61.8316 12.5806 61.6734 12.7979 61.5706L14.5437 63.2293C14.1894 63.5216 13.7506 63.6944 13.2908 63.7228L13.2782 63.7062ZM13.3116 58.614C13.7293 58.614 14.147 58.8462 14.147 59.2112C14.147 59.6631 13.5247 60.082 13.3116 60.223C13.2114 60.1483 12.4763 59.6134 12.4763 59.1863C12.4763 58.8297 12.894 58.614 13.3116 58.614ZM17.3337 65.1783C17.1933 64.5024 16.8698 63.8773 16.3981 63.3703L16.4733 63.304L16.8033 62.9888C17.1051 62.7014 17.297 62.3189 17.3462 61.9065C17.3766 61.6164 17.2997 61.3252 17.1299 61.0872C16.9601 60.8492 16.7089 60.6806 16.4232 60.6127C15.7842 60.4427 15.1326 60.675 14.9781 61.1187C14.9482 61.1875 14.9394 61.2635 14.9528 61.3372C14.9662 61.411 15.0011 61.4792 15.0533 61.5333C15.1405 61.6059 15.2506 61.6456 15.3644 61.6456C15.4782 61.6456 15.5884 61.6059 15.6756 61.5333C15.7525 61.4551 15.8122 61.3619 15.851 61.2596C15.8801 61.1603 15.9348 61.0702 16.0097 60.9984C16.065 60.9565 16.1323 60.9332 16.2018 60.932C16.2996 60.936 16.3928 60.9738 16.4653 61.039C16.5378 61.1041 16.585 61.1925 16.5986 61.2887C16.6149 61.3973 16.599 61.5082 16.5527 61.608C16.3204 61.965 15.9939 62.2518 15.6088 62.4373L15.5085 62.3461L14.0634 60.9611C14.176 60.9133 14.2837 60.855 14.385 60.7869C14.5318 60.7013 14.6714 60.6042 14.8027 60.4966C15.0807 60.2614 15.285 59.952 15.3916 59.6051C15.4667 59.3435 15.4667 59.0663 15.3916 58.8048C15.1869 58.1164 14.4811 57.822 13.8212 57.7432C13.6507 57.7232 13.4791 57.7135 13.3075 57.7142C12.9833 57.6816 12.6558 57.7164 12.3459 57.8163C12.036 57.9163 11.7504 58.0792 11.5074 58.2947C11.2763 58.5435 11.1403 58.8649 11.1231 59.2029C11.1337 59.5029 11.2175 59.7959 11.3674 60.0567C11.5173 60.3174 11.7287 60.5381 11.9835 60.6998C11.6115 60.902 11.279 61.1688 11.002 61.4877C10.6732 61.8578 10.4907 62.3336 10.4883 62.8271C10.4883 64.1333 11.6368 64.8797 13.1905 64.8797C13.9026 64.8975 14.6029 64.6961 15.1953 64.3033C15.2705 64.2536 15.3958 64.1623 15.4626 64.1084L15.5002 64.1416C15.6646 64.2976 15.8142 64.4684 15.9471 64.6517C16.2012 65.0504 16.3545 65.5042 16.394 65.9745C16.5067 67.0651 16.0598 67.9525 15.2579 68.0105C15.1832 68.0231 15.1067 68.0195 15.0335 67.9999C14.9604 67.9804 14.8923 67.9454 14.8341 67.8974C14.7758 67.8494 14.7286 67.7894 14.6958 67.7216C14.663 67.6538 14.6453 67.5798 14.644 67.5046C14.6401 67.4112 14.6174 67.3196 14.5771 67.2351C14.5393 67.1593 14.479 67.0968 14.4043 67.0561C14.3297 67.0153 14.2442 66.9982 14.1595 67.007C14.1013 67.0068 14.0438 67.0186 13.9905 67.0417C13.9372 67.0649 13.8893 67.0988 13.85 67.1413C13.8107 67.1839 13.7808 67.2341 13.7621 67.2888C13.7435 67.3435 13.7366 67.4015 13.7418 67.459C13.7418 67.8737 14.1094 68.2303 14.6565 68.334C14.842 68.3712 15.0318 68.3823 15.2203 68.3671C16.3981 68.2676 17.6929 67.2641 17.3086 65.1824" fill="#AD3238"/>
</svg>
