<svg width="60" height="49" viewBox="0 0 60 49" fill="none" xmlns="http://www.w3.org/2000/svg">
<path d="M33.2255 11.418C35.2426 11.877 37.0314 12.5464 38.5918 13.4262C39.2769 13.8087 39.9429 14.2486 40.5899 14.7459C41.1989 15.2049 41.7507 15.7596 42.2455 16.4098C42.7402 17.0219 43.1399 17.7295 43.4443 18.5328C43.7488 19.2978 43.901 20.1393 43.901 21.0574H31.9125V49H60V29.6639C60 23.8497 59.3911 19.0492 58.1732 15.2623C56.9553 11.4372 55.2046 8.39617 52.921 6.13934C50.5994 3.88251 47.7831 2.29508 44.4719 1.37705C41.1608 0.459016 37.412 0 33.2255 0V11.418ZM1.42721 11.418C3.44434 11.877 5.23311 12.5464 6.79353 13.4262C7.47859 13.8087 8.14462 14.2486 8.79163 14.7459C9.40057 15.2049 9.95243 15.7596 10.4472 16.4098C10.942 17.0219 11.3416 17.7295 11.6461 18.5328C11.9505 19.2978 12.1028 20.1393 12.1028 21.0574H0V49H28.2017V29.6639C28.2017 23.8497 27.5928 19.0492 26.3749 15.2623C25.157 11.4372 23.3872 8.39617 21.0657 6.13934C18.7441 3.88251 15.9467 2.29508 12.6736 1.37705C9.36251 0.459016 5.6137 0 1.42721 0V11.418Z" fill="white"/>
</svg>
