<svg width="130" height="51" viewBox="0 0 130 51" fill="none" xmlns="http://www.w3.org/2000/svg">
<g clip-path="url(#clip0_932_1208)">
<path d="M109.032 37.8384L109.307 32.6862L100.203 32.1874L100.307 29.3185L107.733 30.2834L108.382 25.1593L107.816 25.0867L109.318 16.904L107.668 16.5925L107.545 15.1452L95.6863 16.185L95.7325 16.7002H95.6631L94.9026 37.6159L99.9883 37.8056L100.005 37.3513L109.032 37.8384ZM101.172 24.2201L100.478 24.1312L100.594 20.9321L103.421 20.6838L102.728 24.4309L101.172 24.2201Z" fill="white"/>
<path d="M16.0249 0.0936768L10.9276 0L10.5901 18.8735H5.89267L5.28238 4.64637L0.189697 4.87119L1.58365 37.4192L6.67634 37.1944L6.11228 24.0375H10.4976L10.1208 45.904L15.2181 45.9977L15.5972 24.0375H16.7114V18.8735H15.6897L16.0249 0.0936768Z" fill="white"/>
<path d="M51.2385 12.4142L50.7349 34.8955L55.8309 35.0127L56.3344 12.5313L51.2385 12.4142Z" fill="white"/>
<path d="M72.3287 14.0304L72.2917 13.6089L60.435 14.6487L60.5876 16.4332L59.6213 16.4262L59.4548 38.3513L64.5521 38.3911L64.6955 19.459L69.0761 19.0749L69.7396 35.8642L74.83 35.5972L73.9192 13.9461L72.3287 14.0304Z" fill="white"/>
<path d="M48.2755 15.9695L36.4187 17.0117L36.5528 18.562L36.2893 18.5503L35.5449 39.0445L40.6399 39.2342L41.2733 21.7681L43.6474 21.5597L43.1342 24.918L48.1714 25.7072L49.4059 17.6229L48.4049 17.466L48.2755 15.9695Z" fill="white"/>
<path d="M32.6968 13.7728L32.7338 13.103L23.5702 12.6019L23.2951 17.7541L27.826 18.0023L27.7336 20.5363L20.8979 21.6206L18.9121 21.7611L19.8599 35.5293L20.9348 35.4543L21.1152 36.9087L27.1672 36.1429L27.1487 36.644L32.2345 36.8337L32.283 35.4941L32.9996 35.4028L32.4494 30.9368L33.0736 13.7822L32.6968 13.7728ZM24.6752 31.2576L24.3354 26.3091L27.5417 25.7986L27.3568 30.918L24.6752 31.2576Z" fill="white"/>
<path d="M91.5552 13.1593H91.4743V13.096L79.6152 12.0562L79.525 13.1194L78.7021 13.0586L77.4098 31.4075L78.7437 31.5035L78.5981 32.4403L87.1976 33.8056L87.5166 42.5808L83.4249 42.815L80.2463 37.541L75.8726 40.1803L79.7516 46.6253L79.8348 48.1874L92.103 47.5152L92.0291 46.1241L92.7526 46.0984L91.5552 13.1593ZM82.7707 27.8829L83.4942 17.5785L86.6174 17.8525L87.008 28.5504L82.7707 27.8829Z" fill="white"/>
<path d="M55.861 1.81988L50.8752 2.89441L52.2596 9.48693L57.2454 8.4124L55.861 1.81988Z" fill="white"/>
<path d="M124.578 10.6417L120.045 20.3888L116.878 12.8197L112.185 14.8361L117.13 26.6557L106.898 48.6581L111.51 50.8595L129.187 12.8408L124.578 10.6417Z" fill="white"/>
<path d="M19.8599 42.5972H22.0629V48.8712H24.7977V50.7822H19.8599V42.5972Z" fill="white"/>
<path d="M33.0552 49.74C32.2343 50.5469 31.1359 50.9987 29.9922 51C28.994 50.9923 28.0271 50.646 27.2459 50.0164C26.7829 49.6414 26.4039 49.171 26.1341 48.6363C25.8643 48.1017 25.7098 47.515 25.681 46.9152C25.6521 46.3154 25.7495 45.7163 25.9667 45.1575C26.1839 44.5988 26.5159 44.0933 26.9407 43.6745C27.7585 42.8664 28.8556 42.4141 29.998 42.4141C31.1403 42.4141 32.2375 42.8664 33.0552 43.6745C33.4521 44.0706 33.7672 44.5427 33.9823 45.0634C34.1974 45.5841 34.3082 46.1428 34.3082 46.7073C34.3082 47.2717 34.1974 47.8305 33.9823 48.3511C33.7672 48.8718 33.4521 49.3439 33.0552 49.74ZM32.1051 46.7073C32.1051 45.3794 31.2243 44.3045 29.9922 44.3045C28.7601 44.3045 27.8793 45.3677 27.8793 46.7073C27.8793 48.0468 28.7046 49.1124 29.9922 49.1124C31.2798 49.1124 32.1051 48.0468 32.1051 46.7073Z" fill="white"/>
<path d="M35.7344 42.5972H37.8588L41.5183 47.6534V42.5972H43.6312V50.7822H41.5183L37.8588 45.7143V50.7822H35.7344V42.5972Z" fill="white"/>
<path d="M63.9604 42.5972H66.0849L69.7443 47.6534V42.5972H71.8572V50.7822H69.7443L66.0849 45.7143V50.7822H63.9604V42.5972Z" fill="white"/>
<path d="M45.395 42.5972H47.3392C48.8418 42.5972 50.0508 42.6206 51.1119 43.3771C52.129 44.0984 52.6723 45.2319 52.6723 46.6956C52.6723 48.1593 52.129 49.2834 51.1119 50.0164C50.0947 50.7494 48.9897 50.7822 47.6443 50.7822H45.395V42.5972ZM47.9379 48.9508C49.6208 48.9508 50.423 48.2998 50.423 46.6956C50.423 45.0913 49.5977 44.4286 47.9379 44.4286H47.5657V48.9508H47.9379Z" fill="white"/>
<path d="M61.2811 49.7401C60.4602 50.5469 59.3618 50.9987 58.2181 51C57.2205 50.9927 56.2542 50.6463 55.4741 50.0164C55.0104 49.6419 54.6309 49.1716 54.3606 48.6369C54.0904 48.1022 53.9357 47.5153 53.9068 46.9153C53.8779 46.3153 53.9756 45.7159 54.1932 45.1571C54.4108 44.5983 54.7434 44.0929 55.1689 43.6745C55.9863 42.8666 57.083 42.4143 58.225 42.4143C59.367 42.4143 60.4637 42.8666 61.2811 43.6745C61.678 44.0706 61.9931 44.5428 62.2082 45.0634C62.4233 45.5841 62.5341 46.1428 62.5341 46.7073C62.5341 47.2717 62.4233 47.8305 62.2082 48.3511C61.9931 48.8718 61.678 49.3439 61.2811 49.7401ZM60.331 46.7073C60.331 45.3794 59.4502 44.3045 58.2181 44.3045C56.9859 44.3045 56.1052 45.3677 56.1052 46.7073C56.1052 48.0468 56.9305 49.1124 58.2181 49.1124C59.5057 49.1124 60.331 48.0468 60.331 46.7073Z" fill="white"/>
</g>
<defs>
<clipPath id="clip0_932_1208">
<rect width="129" height="51" fill="white" transform="translate(0.189697)"/>
</clipPath>
</defs>
</svg>
