<svg id="svgSprite" xmlns="http://www.w3.org/2000/svg" xmlns:xlink="http://www.w3.org/1999/xlink"><defs><symbol viewBox="0 0 16 17" id="calendar">
  <title>Group</title>
  <g id="calendar_Symbols" stroke="none" stroke-width="1" fill="none" fill-rule="evenodd">
    <g id="calendar_Group" transform="translate(-4.000000, -3.000000)">
      <g transform="translate(4.000000, 3.000000)">
        <rect id="calendar_Rectangle" stroke="currentColor" x="0.5" y="1.5" width="15" height="15" rx="2" />
        <line x1="0.5" y1="5.5" x2="15.5" y2="5.5" id="calendar_Line-10" stroke="currentColor" stroke-linecap="square" />
        <line x1="12.5" y1="2.5" x2="12.5" y2="0.5" id="calendar_Line-Copy" stroke="currentColor" stroke-linecap="round" />
        <line x1="3.5" y1="2.5" x2="3.5" y2="0.5" id="calendar_Line" stroke="currentColor" stroke-linecap="round" />
      </g>
    </g>
  </g>
</symbol><symbol viewBox="0 0 8 12" id="chevron">
    <path fill="currentColor" fill-rule="evenodd" d="M.424 1.063l.639-.639c.234-.234.614-.234.848 0l5.152 5.152c.234.234.234.614 0 .848L1.91 11.576c-.234.234-.614.234-.848 0l-.639-.639c-.234-.234-.234-.614 0-.848L4.512 6 .424 1.911c-.234-.234-.234-.614 0-.848z" />
</symbol><symbol viewBox="0 0 60 49" fill="none" id="quote">
<path d="M26.7745 11.418C24.7574 11.877 22.9686 12.5464 21.4082 13.4262C20.7231 13.8087 20.0571 14.2486 19.4101 14.7459C18.8011 15.2049 18.2493 15.7596 17.7545 16.4098C17.2598 17.0219 16.8601 17.7295 16.5557 18.5328C16.2512 19.2978 16.099 20.1393 16.099 21.0574H28.0875V49H0V29.6639C0 23.8497 0.608944 19.0492 1.82683 15.2623C3.04472 11.4372 4.79543 8.39617 7.07897 6.13934C9.40057 3.88251 12.2169 2.29508 15.5281 1.37705C18.8392 0.459016 22.588 0 26.7745 0V11.418ZM58.5728 11.418C56.5557 11.877 54.7669 12.5464 53.2065 13.4262C52.5214 13.8087 51.8554 14.2486 51.2084 14.7459C50.5994 15.2049 50.0476 15.7596 49.5528 16.4098C49.058 17.0219 48.6584 17.7295 48.3539 18.5328C48.0495 19.2978 47.8972 20.1393 47.8972 21.0574H60V49H31.7983V29.6639C31.7983 23.8497 32.4072 19.0492 33.6251 15.2623C34.843 11.4372 36.6128 8.39617 38.9343 6.13934C41.2559 3.88251 44.0533 2.29508 47.3264 1.37705C50.6375 0.459016 54.3863 0 58.5728 0V11.418Z" fill="white" />
</symbol><symbol viewBox="0 0 60 49" fill="none" id="quote-close">
<path d="M33.2255 11.418C35.2426 11.877 37.0314 12.5464 38.5918 13.4262C39.2769 13.8087 39.9429 14.2486 40.5899 14.7459C41.1989 15.2049 41.7507 15.7596 42.2455 16.4098C42.7402 17.0219 43.1399 17.7295 43.4443 18.5328C43.7488 19.2978 43.901 20.1393 43.901 21.0574H31.9125V49H60V29.6639C60 23.8497 59.3911 19.0492 58.1732 15.2623C56.9553 11.4372 55.2046 8.39617 52.921 6.13934C50.5994 3.88251 47.7831 2.29508 44.4719 1.37705C41.1608 0.459016 37.412 0 33.2255 0V11.418ZM1.42721 11.418C3.44434 11.877 5.23311 12.5464 6.79353 13.4262C7.47859 13.8087 8.14462 14.2486 8.79163 14.7459C9.40057 15.2049 9.95243 15.7596 10.4472 16.4098C10.942 17.0219 11.3416 17.7295 11.6461 18.5328C11.9505 19.2978 12.1028 20.1393 12.1028 21.0574H0V49H28.2017V29.6639C28.2017 23.8497 27.5928 19.0492 26.3749 15.2623C25.157 11.4372 23.3872 8.39617 21.0657 6.13934C18.7441 3.88251 15.9467 2.29508 12.6736 1.37705C9.36251 0.459016 5.6137 0 1.42721 0V11.418Z" fill="white" />
</symbol></defs></svg>